<svg width="44" height="44" viewBox="0 0 44 44" fill="none" xmlns="http://www.w3.org/2000/svg">
<circle cx="22" cy="22" r="22" fill="white" fill-opacity="0.6"/>
<path d="M21.9531 31.293C20.7188 31.293 19.6406 31.0898 18.7188 30.6836C17.7969 30.2695 17.0664 29.6992 16.5273 28.9727C15.9883 28.2461 15.6797 27.4102 15.6016 26.4648L15.5898 26.3242H18.4727L18.4844 26.4414C18.5469 26.9023 18.7227 27.3125 19.0117 27.6719C19.3086 28.0312 19.707 28.3164 20.207 28.5273C20.707 28.7305 21.2891 28.832 21.9531 28.832C22.6094 28.832 23.1797 28.7227 23.6641 28.5039C24.1562 28.2773 24.5352 27.9688 24.8008 27.5781C25.0742 27.1797 25.2109 26.7227 25.2109 26.207V26.1836C25.2109 25.293 24.9023 24.6094 24.2852 24.1328C23.668 23.6562 22.8203 23.418 21.7422 23.418H19.7383V21.168H21.6719C22.2969 21.168 22.8398 21.0586 23.3008 20.8398C23.7695 20.6211 24.1328 20.3242 24.3906 19.9492C24.6484 19.5664 24.7773 19.1289 24.7773 18.6367V18.6133C24.7773 18.0977 24.6641 17.6602 24.4375 17.3008C24.2188 16.9414 23.8945 16.668 23.4648 16.4805C23.043 16.2852 22.5312 16.1875 21.9297 16.1875C21.3359 16.1875 20.8086 16.2852 20.3477 16.4805C19.8945 16.6758 19.5312 16.9531 19.2578 17.3125C18.9844 17.6719 18.8203 18.0977 18.7656 18.5898L18.7539 18.6953H15.9531L15.9648 18.5664C16.0508 17.6055 16.3477 16.7695 16.8555 16.0586C17.3711 15.3398 18.0586 14.7852 18.918 14.3945C19.7852 13.9961 20.7891 13.7969 21.9297 13.7969C23.0938 13.7969 24.1055 13.9844 24.9648 14.3594C25.8242 14.7266 26.4883 15.2422 26.957 15.9062C27.4336 16.5625 27.6719 17.332 27.6719 18.2148V18.2383C27.6719 18.9336 27.5156 19.5508 27.2031 20.0898C26.8984 20.6211 26.4766 21.0625 25.9375 21.4141C25.4062 21.7656 24.8008 22.0117 24.1211 22.1523V22.2109C25.3711 22.3281 26.375 22.7422 27.1328 23.4531C27.8906 24.1562 28.2695 25.0938 28.2695 26.2656V26.2891C28.2695 27.2656 28.0039 28.1328 27.4727 28.8906C26.9414 29.6484 26.1992 30.2383 25.2461 30.6602C24.3008 31.082 23.2031 31.293 21.9531 31.293Z" fill="white"/>
</svg>
