<svg width="30" height="30" viewBox="0 0 30 30" fill="none" xmlns="http://www.w3.org/2000/svg">
<circle cx="15" cy="15" r="15" fill="white" fill-opacity="0.6"/>
<path d="M15 22C14.0332 22 13.1851 21.8323 12.4555 21.497C11.7319 21.1617 11.1595 20.6928 10.7384 20.0905C10.3173 19.4881 10.0741 18.7895 10.0089 17.9947L10 17.8829H12.5712L12.5801 17.9854C12.6216 18.3207 12.7432 18.6219 12.9448 18.8889C13.1524 19.1559 13.4312 19.367 13.7811 19.5223C14.1311 19.6713 14.5374 19.7458 15 19.7458C15.4567 19.7458 15.8541 19.6651 16.1922 19.5037C16.5362 19.336 16.8001 19.1093 16.984 18.8237C17.1738 18.5318 17.2687 18.1965 17.2687 17.8177V17.7991C17.2687 17.1532 17.0492 16.6596 16.6103 16.318C16.1773 15.9765 15.5724 15.8057 14.7954 15.8057H13.3274V13.8031H14.7598C15.2106 13.8031 15.602 13.7254 15.9342 13.5702C16.2663 13.4149 16.5243 13.2007 16.7082 12.9275C16.8921 12.648 16.984 12.3282 16.984 11.9681V11.9494C16.984 11.5768 16.9039 11.257 16.7438 10.99C16.5896 10.723 16.3612 10.5181 16.0587 10.3752C15.7622 10.2324 15.4033 10.161 14.9822 10.161C14.5611 10.161 14.1904 10.2355 13.8701 10.3846C13.5498 10.5336 13.2948 10.7447 13.105 11.018C12.9152 11.285 12.8025 11.6017 12.7669 11.9681L12.758 12.0519H10.2847L10.2936 11.9401C10.3588 11.1391 10.5902 10.4467 10.9875 9.86294C11.3909 9.27301 11.9306 8.81659 12.6068 8.49368C13.2888 8.16456 14.0807 8 14.9822 8C15.9015 8 16.7023 8.15214 17.3843 8.45642C18.0664 8.75449 18.5913 9.17055 18.9591 9.70459C19.3327 10.2386 19.5196 10.8627 19.5196 11.5768V11.5955C19.5196 12.1544 19.4009 12.6449 19.1637 13.0672C18.9265 13.4895 18.6062 13.8372 18.2028 14.1104C17.7995 14.3837 17.3458 14.5762 16.8416 14.688V14.7438C17.7966 14.837 18.5617 15.1599 19.137 15.7126C19.7123 16.2652 20 16.998 20 17.9108V17.9295C20 18.743 19.7894 19.4571 19.3683 20.0719C18.9531 20.6804 18.3719 21.1555 17.6246 21.497C16.8772 21.8323 16.0024 22 15 22Z" fill="white"/>
</svg>
