<svg width="22" height="21" viewBox="0 0 22 21" fill="none" xmlns="http://www.w3.org/2000/svg">
<path fill-rule="evenodd" clip-rule="evenodd" d="M9.88064 19.6636C10.561 20.1121 11.4386 20.1121 12.1179 19.6636C14.2786 18.2403 18.983 14.8381 21.0098 11.0312C23.6813 6.00896 20.544 1 16.3963 1C14.0324 1 12.6103 2.23261 11.8237 3.29191C11.7292 3.42165 11.6053 3.52723 11.4621 3.60003C11.3189 3.67284 11.1605 3.71079 10.9998 3.71079C10.8391 3.71079 10.6807 3.67284 10.5375 3.60003C10.3943 3.52723 10.2704 3.42165 10.1759 3.29191C9.38925 2.23261 7.9672 1 5.60324 1C1.45558 1 -1.68172 6.00896 0.990761 11.0312C3.01555 14.8381 7.72202 18.2403 9.88064 19.6636Z" fill="#80808F"/>
</svg>
