<svg width="50" height="26" viewBox="0 0 50 26" fill="none" xmlns="http://www.w3.org/2000/svg">
<g filter="url(#filter0_b_820_13906)">
<path fill-rule="evenodd" clip-rule="evenodd" d="M33.6771 23.6104C34.4812 24.1299 35.5183 24.1299 36.3212 23.6104C38.8747 21.9624 44.4345 18.0231 46.8298 13.615C49.987 7.79985 46.2793 2 41.3775 2C38.5837 2 36.9031 3.42724 35.9735 4.65379C35.8618 4.80401 35.7154 4.92627 35.5461 5.01057C35.3769 5.09486 35.1897 5.13881 34.9998 5.13881C34.8098 5.13881 34.6226 5.09486 34.4534 5.01057C34.2841 4.92627 34.1377 4.80401 34.026 4.65379C33.0964 3.42724 31.4158 2 28.622 2C23.7202 2 20.0125 7.79985 23.1709 13.615C25.5638 18.0231 31.126 21.9624 33.6771 23.6104Z" fill="#FFE5A5"/>
</g>
<defs>
<filter id="filter0_b_820_13906" x="-4" y="-4" width="58" height="34" filterUnits="userSpaceOnUse" color-interpolation-filters="sRGB">
<feFlood flood-opacity="0" result="BackgroundImageFix"/>
<feGaussianBlur in="BackgroundImageFix" stdDeviation="2"/>
<feComposite in2="SourceAlpha" operator="in" result="effect1_backgroundBlur_820_13906"/>
<feBlend mode="normal" in="SourceGraphic" in2="effect1_backgroundBlur_820_13906" result="shape"/>
</filter>
</defs>
</svg>
