<svg width="22" height="21" viewBox="0 0 22 21" fill="none" xmlns="http://www.w3.org/2000/svg">
<path fill-rule="evenodd" clip-rule="evenodd" d="M15.9995 5.01327C15.9996 5.67169 15.8703 6.32367 15.6191 6.932C15.3679 7.54032 14.9997 8.09307 14.5355 8.55869C14.0713 9.02431 13.5202 9.39368 12.9137 9.64571C12.3072 9.89774 11.6571 10.0275 11.0005 10.0276C9.67456 10.0277 8.40287 9.49959 7.46519 8.55942C6.52751 7.61925 6.00065 6.34403 6.00051 5.01429C6.00044 4.35587 6.12969 3.70389 6.38088 3.09556C6.63206 2.48724 7.00027 1.93448 7.46447 1.46886C8.40196 0.528502 9.67354 0.000135852 10.9995 2.61938e-08C12.3254 -0.0001358 13.5971 0.52797 14.5348 1.46814C15.4725 2.40831 15.9994 3.68353 15.9995 5.01327ZM11 11.5614C3.80053 11.5614 1 16.1562 1 18.2939C1 20.4305 6.9616 21 11 21C15.0384 21 21 20.4305 21 18.2939C21 16.1562 18.1995 11.5614 11 11.5614Z" fill="#80808F"/>
</svg>
