<svg width="44" height="44" viewBox="0 0 44 44" fill="none" xmlns="http://www.w3.org/2000/svg">
<circle cx="22" cy="22" r="22" fill="#DFA100"/>
<path d="M22.6875 31V27.7539H14.2852V25.1992C14.7461 24.457 15.207 23.7148 15.668 22.9727C16.1367 22.2227 16.6055 21.4766 17.0742 20.7344C17.543 19.9922 18.0078 19.25 18.4688 18.5078C18.9375 17.7656 19.4062 17.0273 19.875 16.293C20.3438 15.5586 20.8125 14.8242 21.2812 14.0898H25.5703V25.2695H27.8672V27.7539H25.5703V31H22.6875ZM17.0156 25.3398H22.7344V16.3984H22.6406C22.2656 16.9766 21.8906 17.5625 21.5156 18.1562C21.1406 18.7422 20.7656 19.332 20.3906 19.9258C20.0156 20.5117 19.6367 21.1016 19.2539 21.6953C18.8789 22.2891 18.5039 22.8828 18.1289 23.4766C17.7539 24.0625 17.3828 24.6523 17.0156 25.2461V25.3398Z" fill="white"/>
</svg>
