<svg width="30" height="30" viewBox="0 0 30 30" fill="none" xmlns="http://www.w3.org/2000/svg">
<circle cx="15" cy="15" r="12" fill="white" fill-opacity="0.4"/>
<path d="M10.1698 20.0664V22H20V19.7062H13.7608L16.5566 17.09C17.3742 16.3318 18.0189 15.6714 18.4906 15.109C18.9686 14.5403 19.305 14.0126 19.5 13.5261C19.7013 13.0332 19.8019 12.5245 19.8019 12V11.9716C19.8019 11.188 19.5975 10.4992 19.1887 9.90521C18.7862 9.3049 18.2264 8.83728 17.5094 8.50237C16.7925 8.16746 15.9623 8 15.0189 8C14.0377 8 13.1698 8.18641 12.4151 8.55924C11.6604 8.93207 11.0692 9.45024 10.6415 10.1137C10.2201 10.7773 10.0063 11.545 10 12.4171L10.0094 12.4645H12.6415L12.6509 12.4076C12.6509 11.9779 12.7453 11.6019 12.934 11.2796C13.1289 10.951 13.3962 10.6951 13.7358 10.5118C14.0818 10.3223 14.478 10.2275 14.9245 10.2275C15.3522 10.2275 15.7201 10.3128 16.0283 10.4834C16.3428 10.6477 16.5849 10.8784 16.7547 11.1754C16.9245 11.466 17.0094 11.8041 17.0094 12.1896V12.218C17.0094 12.5403 16.9434 12.8499 16.8113 13.1469C16.6792 13.4439 16.4434 13.7883 16.1038 14.1801C15.7642 14.5719 15.2799 15.0711 14.6509 15.6777L10.1698 20.0664Z" fill="white"/>
</svg>
