<svg width="24" height="24" viewBox="0 0 24 24" fill="none" xmlns="http://www.w3.org/2000/svg">
<circle cx="12" cy="12" r="12" fill="url(#paint0_linear_847_24741)"/>
<path d="M7.16981 17.0664V19H17V16.7062H10.7608L13.5566 14.09C14.3742 13.3318 15.0189 12.6714 15.4906 12.109C15.9686 11.5403 16.305 11.0126 16.5 10.5261C16.7013 10.0332 16.8019 9.52449 16.8019 9V8.97156C16.8019 8.18799 16.5975 7.49921 16.1887 6.90521C15.7862 6.3049 15.2264 5.83728 14.5094 5.50237C13.7925 5.16746 12.9623 5 12.0189 5C11.0377 5 10.1698 5.18641 9.41509 5.55924C8.66038 5.93207 8.06918 6.45024 7.64151 7.11374C7.22013 7.77725 7.00629 8.54502 7 9.41706L7.00943 9.46446H9.64151L9.65094 9.40758C9.65094 8.97788 9.74528 8.6019 9.93396 8.27962C10.1289 7.95103 10.3962 7.6951 10.7358 7.51185C11.0818 7.32227 11.478 7.22749 11.9245 7.22749C12.3522 7.22749 12.7201 7.3128 13.0283 7.48341C13.3428 7.64771 13.5849 7.87836 13.7547 8.17536C13.9245 8.46603 14.0094 8.80411 14.0094 9.18957V9.21801C14.0094 9.54028 13.9434 9.84992 13.8113 10.1469C13.6792 10.4439 13.4434 10.7883 13.1038 11.1801C12.7642 11.5719 12.2799 12.0711 11.6509 12.6777L7.16981 17.0664Z" fill="white"/>
<defs>
<linearGradient id="paint0_linear_847_24741" x1="12" y1="0" x2="12" y2="24" gradientUnits="userSpaceOnUse">
<stop stop-color="#ADADFF"/>
<stop offset="0.442708" stop-color="#7676D3"/>
</linearGradient>
</defs>
</svg>
