<svg width="30" height="30" viewBox="0 0 30 30" fill="none" xmlns="http://www.w3.org/2000/svg">
<circle cx="15" cy="15" r="12" fill="url(#paint0_linear_847_24738)"/>
<path d="M14.917 22C13.9699 22 13.1365 21.8231 12.417 21.4692C11.6974 21.1153 11.1285 20.6351 10.7103 20.0284C10.2983 19.4218 10.0646 18.7393 10.0092 17.981L10 17.8389H12.5369L12.5554 17.9052C12.623 18.2464 12.7614 18.5561 12.9705 18.8341C13.1857 19.1058 13.4594 19.3239 13.7915 19.4882C14.1298 19.6461 14.508 19.7251 14.9262 19.7251C15.4059 19.7251 15.8272 19.6177 16.19 19.4028C16.559 19.188 16.8481 18.8942 17.0572 18.5213C17.2663 18.1422 17.3708 17.7093 17.3708 17.2227V17.2038C17.3708 16.7172 17.2663 16.2907 17.0572 15.9242C16.8481 15.5513 16.559 15.2607 16.19 15.0521C15.8272 14.8436 15.409 14.7393 14.9354 14.7393C14.6033 14.7393 14.2927 14.7899 14.0037 14.891C13.7208 14.9858 13.4656 15.128 13.238 15.3175C13.115 15.425 12.9982 15.5419 12.8875 15.6682C12.7829 15.7946 12.6937 15.9336 12.6199 16.0853H10.2214L10.8395 8H19.1974V10.2749H13.0166L12.6845 14.1611H12.8229C13.0074 13.8515 13.2411 13.5861 13.524 13.3649C13.8069 13.1438 14.1328 12.9731 14.5018 12.8531C14.877 12.733 15.2768 12.673 15.7011 12.673C16.5375 12.673 17.2786 12.8657 17.9244 13.2512C18.5701 13.6367 19.0775 14.1675 19.4465 14.8436C19.8155 15.5134 20 16.2844 20 17.1564V17.1754C20 18.1295 19.7847 18.97 19.3542 19.6967C18.9237 20.4234 18.3272 20.9889 17.5646 21.3934C16.802 21.7978 15.9194 22 14.917 22Z" fill="white"/>
<defs>
<linearGradient id="paint0_linear_847_24738" x1="15" y1="3" x2="15" y2="27" gradientUnits="userSpaceOnUse">
<stop stop-color="#FFDB80"/>
<stop offset="0.453125" stop-color="#DFA100"/>
</linearGradient>
</defs>
</svg>
