<svg width="24" height="24" viewBox="0 0 24 24" fill="none" xmlns="http://www.w3.org/2000/svg">
<circle cx="12" cy="12" r="12" fill="url(#paint0_linear_847_24738)"/>
<path d="M11.917 19C10.9699 19 10.1365 18.8231 9.41697 18.4692C8.69742 18.1153 8.12854 17.6351 7.71033 17.0284C7.29828 16.4218 7.06458 15.7393 7.00923 14.981L7 14.8389H9.5369L9.55535 14.9052C9.623 15.2464 9.76138 15.5561 9.97048 15.8341C10.1857 16.1058 10.4594 16.3239 10.7915 16.4882C11.1298 16.6461 11.508 16.7251 11.9262 16.7251C12.4059 16.7251 12.8272 16.6177 13.19 16.4028C13.559 16.188 13.8481 15.8942 14.0572 15.5213C14.2663 15.1422 14.3708 14.7093 14.3708 14.2227V14.2038C14.3708 13.7172 14.2663 13.2907 14.0572 12.9242C13.8481 12.5513 13.559 12.2607 13.19 12.0521C12.8272 11.8436 12.409 11.7393 11.9354 11.7393C11.6033 11.7393 11.2927 11.7899 11.0037 11.891C10.7208 11.9858 10.4656 12.128 10.238 12.3175C10.115 12.425 9.99816 12.5419 9.88745 12.6682C9.7829 12.7946 9.69373 12.9336 9.61993 13.0853H7.2214L7.83948 5H16.1974V7.27488H10.0166L9.6845 11.1611H9.82288C10.0074 10.8515 10.2411 10.5861 10.524 10.3649C10.8069 10.1438 11.1328 9.97314 11.5018 9.85308C11.877 9.73302 12.2768 9.67299 12.7011 9.67299C13.5375 9.67299 14.2786 9.86572 14.9244 10.2512C15.5701 10.6367 16.0775 11.1675 16.4465 11.8436C16.8155 12.5134 17 13.2844 17 14.1564V14.1754C17 15.1295 16.7847 15.97 16.3542 16.6967C15.9237 17.4234 15.3272 17.9889 14.5646 18.3934C13.802 18.7978 12.9194 19 11.917 19Z" fill="white"/>
<defs>
<linearGradient id="paint0_linear_847_24738" x1="12" y1="0" x2="12" y2="24" gradientUnits="userSpaceOnUse">
<stop stop-color="#FFDB80"/>
<stop offset="0.453125" stop-color="#DFA100"/>
</linearGradient>
</defs>
</svg>
