<svg width="44" height="44" viewBox="0 0 44 44" fill="none" xmlns="http://www.w3.org/2000/svg">
<circle cx="22" cy="22" r="22" fill="white" fill-opacity="0.4"/>
<path d="M16.1875 31V28.9375L22.082 23.1484C22.832 22.4141 23.4023 21.8086 23.793 21.332C24.1836 20.8477 24.4531 20.4141 24.6016 20.0312C24.75 19.6484 24.8242 19.25 24.8242 18.8359V18.8008C24.8242 18.293 24.707 17.8438 24.4727 17.4531C24.2383 17.0625 23.9102 16.7578 23.4883 16.5391C23.0742 16.3125 22.5898 16.1992 22.0352 16.1992C21.418 16.1992 20.8711 16.3281 20.3945 16.5859C19.918 16.8359 19.543 17.1797 19.2695 17.6172C19.0039 18.0469 18.8672 18.5391 18.8594 19.0938L18.8477 19.1641H16.0352L16.0234 19.0938C16.0234 18.0547 16.2852 17.1367 16.8086 16.3398C17.3398 15.5352 18.0586 14.9062 18.9648 14.4531C19.8711 14 20.8984 13.7734 22.0469 13.7734C23.1719 13.7734 24.1641 13.9844 25.0234 14.4062C25.8906 14.8203 26.5664 15.3945 27.0508 16.1289C27.543 16.8555 27.7891 17.6836 27.7891 18.6133V18.6484C27.7891 19.3047 27.668 19.9258 27.4258 20.5117C27.1914 21.0898 26.7891 21.7227 26.2188 22.4102C25.6484 23.0898 24.8633 23.9141 23.8633 24.8828L19.1641 29.3594L20.1953 27.4961V29.3594L19.1758 28.5273H28.0469V31H16.1875Z" fill="white"/>
</svg>
