<svg width="22" height="21" viewBox="0 0 22 21" fill="none" xmlns="http://www.w3.org/2000/svg">
<path fill-rule="evenodd" clip-rule="evenodd" d="M20.2315 6.82616L11.6336 0.214139C11.4537 0.0754969 11.2305 0 11.0005 0C10.7705 0 10.5473 0.0754969 10.3674 0.214139L1.76849 6.82616C1.52883 7.01051 1.33527 7.24477 1.20221 7.5115C1.06916 7.77823 1.00004 8.07055 1 8.3667V17.6375C1 18.2641 1.25737 18.865 1.7155 19.308C2.17363 19.7511 2.79498 20 3.44287 20H8.96478V15.3223C8.96478 15.0612 9.07202 14.8108 9.26291 14.6262C9.45379 14.4416 9.71269 14.3379 9.98265 14.3379H12.0184C12.2883 14.3379 12.5472 14.4416 12.7381 14.6262C12.929 14.8108 13.0362 15.0612 13.0362 15.3223V20H18.5571C19.205 20 19.8264 19.7511 20.2845 19.308C20.7426 18.865 21 18.2641 21 17.6375V8.36769C21 8.07154 20.9308 7.77922 20.7978 7.51249C20.6647 7.24576 20.4712 7.01051 20.2315 6.82616Z" fill="#80808F"/>
</svg>
