<svg width="28" height="28" viewBox="0 0 28 28" fill="none" xmlns="http://www.w3.org/2000/svg">
<g filter="url(#filter0_d_1173_141597)">
<path fill-rule="evenodd" clip-rule="evenodd" d="M23.2315 6.82616L14.6336 0.214139C14.4537 0.0754969 14.2305 0 14.0005 0C13.7705 0 13.5473 0.0754969 13.3674 0.214139L4.76849 6.82616C4.52883 7.01051 4.33527 7.24477 4.20221 7.5115C4.06916 7.77823 4.00004 8.07055 4 8.3667V17.6375C4 18.2641 4.25737 18.865 4.7155 19.308C5.17363 19.7511 5.79498 20 6.44287 20H11.9648V15.3223C11.9648 15.0612 12.072 14.8108 12.2629 14.6262C12.4538 14.4416 12.7127 14.3379 12.9826 14.3379H15.0184C15.2883 14.3379 15.5472 14.4416 15.7381 14.6262C15.929 14.8108 16.0362 15.0612 16.0362 15.3223V20H21.5571C22.205 20 22.8264 19.7511 23.2845 19.308C23.7426 18.865 24 18.2641 24 17.6375V8.36769C24 8.07154 23.9308 7.77922 23.7978 7.51249C23.6647 7.24576 23.4712 7.01051 23.2315 6.82616Z" fill="#80808F"/>
</g>
<defs>
<filter id="filter0_d_1173_141597" x="-1" y="0" width="30" height="29" filterUnits="userSpaceOnUse" color-interpolation-filters="sRGB">
<feFlood flood-opacity="0" result="BackgroundImageFix"/>
<feColorMatrix in="SourceAlpha" type="matrix" values="0 0 0 0 0 0 0 0 0 0 0 0 0 0 0 0 0 0 127 0" result="hardAlpha"/>
<feOffset dy="4"/>
<feGaussianBlur stdDeviation="2"/>
<feComposite in2="hardAlpha" operator="out"/>
<feColorMatrix type="matrix" values="0 0 0 0 0 0 0 0 0 0 0 0 0 0 0 0 0 0 0.25 0"/>
<feBlend mode="normal" in2="BackgroundImageFix" result="effect1_dropShadow_1173_141597"/>
<feBlend mode="normal" in="SourceGraphic" in2="effect1_dropShadow_1173_141597" result="shape"/>
</filter>
</defs>
</svg>
