<svg width="44" height="45" viewBox="0 0 44 45" fill="none" xmlns="http://www.w3.org/2000/svg">
<circle cx="22" cy="22.5" r="22" fill="#E5E5FF" fill-opacity="0.1"/>
<path d="M22 32.8418C20.3867 32.8418 19.0013 32.4271 17.8438 31.5977C16.6862 30.7682 15.7975 29.5924 15.1777 28.0703C14.5579 26.5391 14.248 24.7298 14.248 22.6426V22.6152C14.248 20.528 14.5579 18.7233 15.1777 17.2012C15.7975 15.6699 16.6862 14.4941 17.8438 13.6738C19.0013 12.8444 20.3867 12.4297 22 12.4297C23.6042 12.4297 24.985 12.8444 26.1426 13.6738C27.3092 14.4941 28.2025 15.6699 28.8223 17.2012C29.4421 18.7233 29.752 20.528 29.752 22.6152V22.6426C29.752 24.7298 29.4421 26.5391 28.8223 28.0703C28.2025 29.5924 27.3092 30.7682 26.1426 31.5977C24.985 32.4271 23.6042 32.8418 22 32.8418ZM22 29.957C22.8841 29.957 23.6406 29.6654 24.2695 29.082C24.8984 28.4987 25.377 27.6602 25.7051 26.5664C26.0332 25.4727 26.1973 24.1647 26.1973 22.6426V22.6152C26.1973 21.0931 26.0332 19.7897 25.7051 18.7051C25.377 17.6113 24.8984 16.7773 24.2695 16.2031C23.6406 15.6198 22.8841 15.3281 22 15.3281C21.1068 15.3281 20.3457 15.6198 19.7168 16.2031C19.097 16.7773 18.623 17.6113 18.2949 18.7051C17.9668 19.7897 17.8027 21.0931 17.8027 22.6152V22.6426C17.8027 24.1647 17.9668 25.4727 18.2949 26.5664C18.623 27.6602 19.097 28.4987 19.7168 29.082C20.3457 29.6654 21.1068 29.957 22 29.957Z" fill="white"/>
</svg>
