<svg width="44" height="45" viewBox="0 0 44 45" fill="none" xmlns="http://www.w3.org/2000/svg">
<circle cx="22" cy="22.5" r="22" fill="white" fill-opacity="0.1"/>
<path d="M22 31.8164C20.625 31.8164 19.4414 31.4609 18.4492 30.75C17.4648 30.0312 16.707 29.0195 16.1758 27.7148C15.6523 26.4023 15.3906 24.8477 15.3906 23.0508V23.0273C15.3906 21.2305 15.6523 19.6797 16.1758 18.375C16.707 17.0625 17.4648 16.0508 18.4492 15.3398C19.4414 14.6289 20.625 14.2734 22 14.2734C23.3672 14.2734 24.543 14.6289 25.5273 15.3398C26.5195 16.0508 27.2812 17.0625 27.8125 18.375C28.3438 19.6797 28.6094 21.2305 28.6094 23.0273V23.0508C28.6094 24.8477 28.3438 26.4023 27.8125 27.7148C27.2812 29.0195 26.5195 30.0312 25.5273 30.75C24.543 31.4609 23.3672 31.8164 22 31.8164ZM22 29.3555C22.75 29.3555 23.3906 29.1016 23.9219 28.5938C24.4531 28.0859 24.8594 27.3633 25.1406 26.4258C25.4219 25.4805 25.5625 24.3555 25.5625 23.0508V23.0273C25.5625 21.7148 25.4219 20.5938 25.1406 19.6641C24.8594 18.7266 24.4531 18.0078 23.9219 17.5078C23.3906 17 22.75 16.7461 22 16.7461C21.2422 16.7461 20.5977 17 20.0664 17.5078C19.5352 18.0078 19.1289 18.7266 18.8477 19.6641C18.5742 20.5938 18.4375 21.7148 18.4375 23.0273V23.0508C18.4375 24.3555 18.5742 25.4805 18.8477 26.4258C19.1289 27.3633 19.5352 28.0859 20.0664 28.5938C20.5977 29.1016 21.2422 29.3555 22 29.3555Z" fill="white"/>
</svg>
