<svg width="30" height="30" viewBox="0 0 30 30" fill="none" xmlns="http://www.w3.org/2000/svg">
<circle cx="15" cy="15" r="15" fill="white" fill-opacity="0.1"/>
<path d="M15 22C13.7522 22 12.6811 21.7159 11.7868 21.1476C10.8925 20.5793 10.2028 19.7732 9.7175 18.7293C9.23917 17.6854 9 16.4439 9 15.0046V14.9861C9 13.5469 9.23917 12.3084 9.7175 11.2707C10.2028 10.2268 10.8925 9.42069 11.7868 8.85242C12.6811 8.28414 13.7522 8 15 8C16.2478 8 17.3189 8.28414 18.2132 8.85242C19.1075 9.42069 19.7938 10.2268 20.2721 11.2707C20.7574 12.3084 21 13.5469 21 14.9861V15.0046C21 16.4439 20.7574 17.6854 20.2721 18.7293C19.7938 19.7732 19.1075 20.5793 18.2132 21.1476C17.3189 21.7159 16.2478 22 15 22ZM15 19.7856C15.6031 19.7856 16.1127 19.5972 16.5286 19.2204C16.9515 18.8374 17.2738 18.2908 17.4957 17.5804C17.7175 16.8639 17.8284 16.0053 17.8284 15.0046V14.9861C17.8284 13.9854 17.7175 13.1299 17.4957 12.4196C17.2738 11.7092 16.9515 11.1657 16.5286 10.7889C16.1127 10.4121 15.6031 10.2237 15 10.2237C14.4038 10.2237 13.8943 10.4121 13.4714 10.7889C13.0555 11.1657 12.7366 11.7092 12.5147 12.4196C12.2929 13.1299 12.182 13.9854 12.182 14.9861V15.0046C12.182 16.0053 12.2929 16.8639 12.5147 17.5804C12.7366 18.2908 13.0555 18.8374 13.4714 19.2204C13.8943 19.5972 14.4038 19.7856 15 19.7856Z" fill="white"/>
</svg>
