<svg width="24" height="24" viewBox="0 0 24 24" fill="none" xmlns="http://www.w3.org/2000/svg">
<circle cx="12" cy="12" r="12" fill="url(#paint0_linear_847_24740)"/>
<path d="M12 19C11.0332 19 10.1851 18.8323 9.45552 18.497C8.73191 18.1617 8.15955 17.6928 7.73843 17.0905C7.31732 16.4881 7.07414 15.7895 7.0089 14.9947L7 14.8829H9.57117L9.58007 14.9854C9.62159 15.3207 9.74318 15.6219 9.94484 15.8889C10.1524 16.1559 10.4312 16.367 10.7811 16.5223C11.1311 16.6713 11.5374 16.7458 12 16.7458C12.4567 16.7458 12.8541 16.6651 13.1922 16.5037C13.5362 16.336 13.8001 16.1093 13.984 15.8237C14.1738 15.5318 14.2687 15.1965 14.2687 14.8177V14.7991C14.2687 14.1532 14.0492 13.6596 13.6103 13.318C13.1773 12.9765 12.5724 12.8057 11.7954 12.8057H10.3274V10.8031H11.7598C12.2106 10.8031 12.602 10.7254 12.9342 10.5702C13.2663 10.4149 13.5243 10.2007 13.7082 9.92748C13.8921 9.64804 13.984 9.32823 13.984 8.96806V8.94943C13.984 8.57685 13.9039 8.25704 13.7438 7.99002C13.5896 7.723 13.3612 7.51807 13.0587 7.37525C12.7622 7.23242 12.4033 7.16101 11.9822 7.16101C11.5611 7.16101 11.1904 7.23553 10.8701 7.38456C10.5498 7.5336 10.2948 7.74473 10.105 8.01796C9.91518 8.28499 9.80249 8.60169 9.7669 8.96806L9.75801 9.0519H7.2847L7.29359 8.94012C7.35884 8.13906 7.59015 7.44666 7.98754 6.86294C8.39087 6.27301 8.9306 5.81659 9.60676 5.49368C10.2888 5.16456 11.0807 5 11.9822 5C12.9015 5 13.7023 5.15214 14.3843 5.45642C15.0664 5.75449 15.5913 6.17055 15.9591 6.70459C16.3327 7.23863 16.5196 7.86272 16.5196 8.57685V8.59548C16.5196 9.15436 16.4009 9.64493 16.1637 10.0672C15.9265 10.4895 15.6062 10.8372 15.2028 11.1104C14.7995 11.3837 14.3458 11.5762 13.8416 11.688V11.7438C14.7966 11.837 15.5617 12.1599 16.137 12.7126C16.7123 13.2652 17 13.998 17 14.9108V14.9295C17 15.743 16.7894 16.4571 16.3683 17.0719C15.9531 17.6804 15.3719 18.1555 14.6246 18.497C13.8772 18.8323 13.0024 19 12 19Z" fill="white"/>
<defs>
<linearGradient id="paint0_linear_847_24740" x1="12" y1="0" x2="12" y2="24" gradientUnits="userSpaceOnUse">
<stop stop-color="#DFA100"/>
<stop offset="1" stop-color="#7676D3"/>
</linearGradient>
</defs>
</svg>
