<svg width="24" height="24" viewBox="0 0 24 24" fill="none" xmlns="http://www.w3.org/2000/svg">
<circle cx="12" cy="12" r="12" fill="#DFA100"/>
<path d="M12.5852 19V16.429H6V14.1005C6.34626 13.4731 6.69252 12.8522 7.03879 12.2377C7.39123 11.6168 7.74368 10.9991 8.09612 10.3846C8.45475 9.77015 8.81029 9.16216 9.16273 8.56064C9.52136 7.95911 9.87999 7.36082 10.2386 6.76577C10.5972 6.17071 10.9559 5.58212 11.3145 5H15.247V14.0811H17V16.429H15.247V19H12.5852ZM8.50422 14.1684H12.6408V7.20236H12.511C12.2451 7.62924 11.9761 8.06583 11.704 8.51213C11.432 8.95842 11.1599 9.41118 10.8879 9.87041C10.6158 10.3296 10.3437 10.7921 10.0717 11.2578C9.80579 11.7235 9.53991 12.1892 9.27403 12.6549C9.00815 13.1141 8.75155 13.5733 8.50422 14.0326V14.1684Z" fill="white"/>
</svg>
