<svg width="24" height="24" viewBox="0 0 24 24" fill="none" xmlns="http://www.w3.org/2000/svg">
<circle cx="12" cy="12" r="12" fill="white" fill-opacity="0.1"/>
<path d="M12 19C10.7522 19 9.68111 18.7159 8.78683 18.1476C7.89255 17.5793 7.20277 16.7732 6.7175 15.7293C6.23917 14.6854 6 13.4439 6 12.0046V11.9861C6 10.5469 6.23917 9.3084 6.7175 8.27068C7.20277 7.22678 7.89255 6.42069 8.78683 5.85242C9.68111 5.28414 10.7522 5 12 5C13.2478 5 14.3189 5.28414 15.2132 5.85242C16.1075 6.42069 16.7938 7.22678 17.2721 8.27068C17.7574 9.3084 18 10.5469 18 11.9861V12.0046C18 13.4439 17.7574 14.6854 17.2721 15.7293C16.7938 16.7732 16.1075 17.5793 15.2132 18.1476C14.3189 18.7159 13.2478 19 12 19ZM12 16.7856C12.6031 16.7856 13.1127 16.5972 13.5286 16.2204C13.9515 15.8374 14.2738 15.2908 14.4957 14.5804C14.7175 13.8639 14.8284 13.0053 14.8284 12.0046V11.9861C14.8284 10.9854 14.7175 10.1299 14.4957 9.41959C14.2738 8.70924 13.9515 8.16567 13.5286 7.78888C13.1127 7.41209 12.6031 7.22369 12 7.22369C11.4038 7.22369 10.8943 7.41209 10.4714 7.78888C10.0555 8.16567 9.73657 8.70924 9.51473 9.41959C9.29289 10.1299 9.18198 10.9854 9.18198 11.9861V12.0046C9.18198 13.0053 9.29289 13.8639 9.51473 14.5804C9.73657 15.2908 10.0555 15.8374 10.4714 16.2204C10.8943 16.5972 11.4038 16.7856 12 16.7856Z" fill="white"/>
</svg>
