<svg width="22" height="21" viewBox="0 0 22 21" fill="none" xmlns="http://www.w3.org/2000/svg">
<g clip-path="url(#clip0_2521_82398)">
<path fill-rule="evenodd" clip-rule="evenodd" d="M11.0002 15.9836C9.72529 15.9822 8.50299 15.4982 7.60147 14.6376C6.69996 13.7771 6.19285 12.6104 6.19139 11.3934C6.19261 10.1762 6.69961 9.00928 7.60115 8.14856C8.50269 7.28783 9.72513 6.80365 11.0002 6.80226C12.2753 6.80365 13.4978 7.28783 14.3993 8.14856C15.3008 9.00928 15.8078 10.1762 15.8091 11.3934C15.8076 12.6104 15.3005 13.7771 14.399 14.6376C13.4975 15.4982 12.2752 15.9822 11.0002 15.9836ZM19.6891 3.9066L15.7293 3.89538L14.7091 1.9975C14.5473 1.69705 14.3019 1.44499 13.9998 1.26901C13.6977 1.09304 13.3506 0.999956 12.9967 1H8.95148C8.59062 0.999959 8.23701 1.09674 7.931 1.2793C7.62499 1.46187 7.3789 1.72286 7.22081 2.0325L6.27114 3.89538H2.31092C2.24756 3.89538 1.707 3.95221 1.42664 4.06297C1.14627 4.17373 0.891508 4.33613 0.676907 4.54089C0.462307 4.74566 0.292072 4.98878 0.175926 5.25636C0.0597802 5.52394 -2.38897e-08 5.81074 0 6.69901L2.38419e-07 16.8499C2.14529e-07 17.1395 0.0597804 17.4263 0.175926 17.6939C0.292072 17.9615 0.462307 18.2046 0.676908 18.4094C0.891508 18.6141 1.14627 18.7765 1.42664 18.8873C1.707 18.998 2.00749 19.055 2.31092 19.0549L19.6891 19.0661C19.9925 19.0662 20.293 19.0093 20.5734 18.8985C20.8537 18.7878 21.1085 18.6254 21.3231 18.4206C21.5377 18.2158 21.7079 17.9727 21.8241 17.7051C21.9402 17.4375 22 17.1507 22 16.8611V6.71023C22 5.82196 21.9402 5.53516 21.8241 5.26758C21.7079 5 21.5377 4.75688 21.3231 4.55212C21.1085 4.34735 20.8537 4.18495 20.5734 4.07419C20.293 3.96343 19.9925 3.90648 19.6891 3.9066Z" fill="#80808F"/>
<path fill-rule="evenodd" clip-rule="evenodd" d="M11.0002 8.45605C10.1847 8.45698 9.40289 8.76669 8.82632 9.31721C8.24975 9.86774 7.92553 10.6141 7.9248 11.3926C7.92529 12.1711 8.24943 12.9176 8.82605 13.4682C9.40267 14.0187 10.1846 14.3284 11.0002 14.3291C11.8158 14.3284 12.5978 14.0187 13.1744 13.4682C13.751 12.9176 14.0752 12.1711 14.0756 11.3926C14.0749 10.6141 13.7507 9.86774 13.1741 9.31721C12.5976 8.76669 11.8157 8.45698 11.0002 8.45605Z" fill="#80808F"/>
</g>
<defs>
<clipPath id="clip0_2521_82398">
<rect width="22" height="21" fill="white"/>
</clipPath>
</defs>
</svg>
