<svg width="11" height="14" viewBox="0 0 11 14" fill="none" xmlns="http://www.w3.org/2000/svg">
<path d="M2.41113 13.5928C1.90983 13.5928 1.52702 13.4561 1.2627 13.1826C1.00293 12.9092 0.873047 12.5036 0.873047 11.9658V7.25586C0.873047 6.7181 1.00293 6.31478 1.2627 6.0459C1.52702 5.77246 1.90983 5.63574 2.41113 5.63574H8.66602C9.16732 5.63574 9.54785 5.77246 9.80762 6.0459C10.0719 6.31478 10.2041 6.7181 10.2041 7.25586V11.9658C10.2041 12.5036 10.0719 12.9092 9.80762 13.1826C9.54785 13.4561 9.16732 13.5928 8.66602 13.5928H2.41113ZM2.06934 6.16211V4.00195C2.06934 3.14518 2.2334 2.43424 2.56152 1.86914C2.89421 1.30404 3.32487 0.882487 3.85352 0.604492C4.38216 0.32194 4.94271 0.180664 5.53516 0.180664C6.13216 0.180664 6.69499 0.32194 7.22363 0.604492C7.75228 0.882487 8.18066 1.30404 8.50879 1.86914C8.84147 2.43424 9.00781 3.14518 9.00781 4.00195V6.16211H7.92773V3.85156C7.92773 3.27734 7.81608 2.79427 7.59277 2.40234C7.37402 2.01042 7.08236 1.71419 6.71777 1.51367C6.35775 1.31315 5.96354 1.21289 5.53516 1.21289C5.11133 1.21289 4.71712 1.31315 4.35254 1.51367C3.99251 1.71419 3.70312 2.01042 3.48438 2.40234C3.26562 2.79427 3.15625 3.27734 3.15625 3.85156V6.16211H2.06934Z" fill="#E5E5FF" fill-opacity="0.5"/>
</svg>
