<svg width="16" height="14" viewBox="0 0 16 14" fill="none" xmlns="http://www.w3.org/2000/svg">
<path fill-rule="evenodd" clip-rule="evenodd" d="M7.18592 13.5735C7.68074 13.8997 8.31895 13.8997 8.81303 13.5735C10.3844 12.5384 13.8058 10.0641 15.2799 7.2954C17.2228 3.64288 14.9411 0 11.9246 0C10.2054 0 9.17115 0.896447 8.59906 1.66684C8.53034 1.7612 8.44023 1.83799 8.33609 1.89093C8.23195 1.94388 8.11673 1.97148 7.99985 1.97148C7.88297 1.97148 7.76775 1.94388 7.66361 1.89093C7.55946 1.83799 7.46935 1.7612 7.40064 1.66684C6.82855 0.896447 5.79433 0 4.07508 0C1.05861 0 -1.22307 3.64288 0.720553 7.2954C2.19313 10.0641 5.61601 12.5384 7.18592 13.5735" fill="#E5E5FF" fill-opacity="0.1"/>
</svg>
