<svg width="300" height="58" viewBox="0 0 300 58" fill="none" xmlns="http://www.w3.org/2000/svg">
<rect x="1.5" y="1.5" width="297" height="55" rx="10.5" stroke="#7676D3" stroke-width="3"/>
<path d="M53.1667 58V55.5833H52.1667V58H53.1667ZM53.1667 50.75V45.9167H52.1667V50.75H53.1667ZM53.1667 41.0833V36.25H52.1667V41.0833H53.1667ZM53.1667 31.4167V26.5833H52.1667V31.4167H53.1667ZM53.1667 21.75V16.9167H52.1667V21.75H53.1667ZM53.1667 12.0833V7.25H52.1667V12.0833H53.1667ZM53.1667 2.41667V0H52.1667V2.41667H53.1667Z" fill="#7676D3"/>
<path d="M101.834 58V55.5833H100.834V58H101.834ZM101.834 50.75V45.9167H100.834V50.75H101.834ZM101.834 41.0833V36.25H100.834V41.0833H101.834ZM101.834 31.4167V26.5833H100.834V31.4167H101.834ZM101.834 21.75V16.9167H100.834V21.75H101.834ZM101.834 12.0833V7.25H100.834V12.0833H101.834ZM101.834 2.41667V0H100.834V2.41667H101.834Z" fill="#7676D3"/>
<path d="M150.5 58V55.5833H149.5V58H150.5ZM150.5 50.75V45.9167H149.5V50.75H150.5ZM150.5 41.0833V36.25H149.5V41.0833H150.5ZM150.5 31.4167V26.5833H149.5V31.4167H150.5ZM150.5 21.75V16.9167H149.5V21.75H150.5ZM150.5 12.0833V7.25H149.5V12.0833H150.5ZM150.5 2.41667V0H149.5V2.41667H150.5Z" fill="#7676D3"/>
<path d="M199.167 58V55.5833H198.167V58H199.167ZM199.167 50.75V45.9167H198.167V50.75H199.167ZM199.167 41.0833V36.25H198.167V41.0833H199.167ZM199.167 31.4167V26.5833H198.167V31.4167H199.167ZM199.167 21.75V16.9167H198.167V21.75H199.167ZM199.167 12.0833V7.25H198.167V12.0833H199.167ZM199.167 2.41667V0H198.167V2.41667H199.167Z" fill="#7676D3"/>
<path d="M247.834 58V55.5833H246.834V58H247.834ZM247.834 50.75V45.9167H246.834V50.75H247.834ZM247.834 41.0833V36.25H246.834V41.0833H247.834ZM247.834 31.4167V26.5833H246.834V31.4167H247.834ZM247.834 21.75V16.9167H246.834V21.75H247.834ZM247.834 12.0833V7.25H246.834V12.0833H247.834ZM247.834 2.41667V0H246.834V2.41667H247.834Z" fill="#7676D3"/>
</svg>
