<svg width="30" height="30" viewBox="0 0 30 30" fill="none" xmlns="http://www.w3.org/2000/svg">
<circle cx="15" cy="15" r="15" fill="#DFA100"/>
<path d="M15.5852 22V19.429H9V17.1005C9.34626 16.4731 9.69252 15.8522 10.0388 15.2377C10.3912 14.6168 10.7437 13.9991 11.0961 13.3846C11.4547 12.7702 11.8103 12.1622 12.1627 11.5606C12.5214 10.9591 12.88 10.3608 13.2386 9.76577C13.5972 9.17071 13.9559 8.58212 14.3145 8H18.247V17.0811H20V19.429H18.247V22H15.5852ZM11.5042 17.1684H15.6408V10.2024H15.511C15.2451 10.6292 14.9761 11.0658 14.704 11.5121C14.432 11.9584 14.1599 12.4112 13.8879 12.8704C13.6158 13.3296 13.3437 13.7921 13.0717 14.2578C12.8058 14.7235 12.5399 15.1892 12.274 15.6549C12.0082 16.1141 11.7515 16.5733 11.5042 17.0326V17.1684Z" fill="white"/>
</svg>
