<svg width="50" height="26" viewBox="0 0 50 26" fill="none" xmlns="http://www.w3.org/2000/svg">
<g filter="url(#filter0_b_820_13905)">
<rect width="50" height="26" rx="13" fill="#E5E5FF" fill-opacity="0.1"/>
<path d="M9.69795 12.7119C9.69795 12.4043 9.80537 12.1431 10.0202 11.9282C10.2399 11.7085 10.5036 11.5986 10.8112 11.5986H14.8762V7.54102C14.8762 7.2334 14.9836 6.97217 15.1984 6.75732C15.4133 6.5376 15.6745 6.42773 15.9821 6.42773C16.2897 6.42773 16.551 6.5376 16.7658 6.75732C16.9855 6.97217 17.0954 7.2334 17.0954 7.54102V11.5986H21.1604C21.4631 11.5986 21.7219 11.7085 21.9367 11.9282C22.1564 12.1431 22.2663 12.4043 22.2663 12.7119C22.2663 13.0195 22.1564 13.2832 21.9367 13.5029C21.7219 13.7178 21.4631 13.8252 21.1604 13.8252H17.0954V17.8901C17.0954 18.1929 16.9855 18.4517 16.7658 18.6665C16.551 18.8862 16.2897 18.9961 15.9821 18.9961C15.6745 18.9961 15.4133 18.8862 15.1984 18.6665C14.9836 18.4517 14.8762 18.1929 14.8762 17.8901V13.8252H10.8112C10.5036 13.8252 10.2399 13.7178 10.0202 13.5029C9.80537 13.2832 9.69795 13.0195 9.69795 12.7119ZM30.0062 6.945H30.9212V8.145C30.9212 9.84 30.2762 11.985 28.5212 12.93L27.8612 12.03C29.3912 11.205 30.0062 9.435 30.0062 8.145V6.945ZM30.3062 6.945H31.1912V8.145C31.1912 9.285 31.5962 11.175 33.0962 12.135L32.5262 13.065C30.7562 12.015 30.3062 9.66 30.3062 8.145V6.945ZM33.8762 6.945H34.7612V8.145C34.7612 9.75 34.3112 12.045 32.5262 13.065L31.9712 12.135C33.4712 11.205 33.8762 9.375 33.8762 8.145V6.945ZM34.1462 6.945H35.0762V8.145C35.0762 9.48 35.6762 11.22 37.2212 12.03L36.5612 12.93C34.7912 12 34.1462 9.885 34.1462 8.145V6.945ZM28.3112 6.555H32.2112V7.56H28.3112V6.555ZM32.8562 6.555H36.6812V7.56H32.8562V6.555ZM37.9562 5.595H39.2162V13.56H37.9562V5.595ZM30.2312 14.295H39.2162V18.99H30.2312V14.295ZM37.9862 15.3H31.4462V17.97H37.9862V15.3Z" fill="#E6E6FF" fill-opacity="0.85"/>
</g>
<defs>
<filter id="filter0_b_820_13905" x="-4" y="-4" width="58" height="34" filterUnits="userSpaceOnUse" color-interpolation-filters="sRGB">
<feFlood flood-opacity="0" result="BackgroundImageFix"/>
<feGaussianBlur in="BackgroundImageFix" stdDeviation="2"/>
<feComposite in2="SourceAlpha" operator="in" result="effect1_backgroundBlur_820_13905"/>
<feBlend mode="normal" in="SourceGraphic" in2="effect1_backgroundBlur_820_13905" result="shape"/>
</filter>
</defs>
</svg>
