<svg width="44" height="44" viewBox="0 0 44 44" fill="none" xmlns="http://www.w3.org/2000/svg">
<circle cx="22" cy="22" r="22" fill="url(#paint0_linear_787_4936)"/>
<path d="M22.1641 31.3164C21 31.3164 19.9727 31.1016 19.082 30.6719C18.1914 30.2422 17.4805 29.6602 16.9492 28.9258C16.4258 28.1836 16.1289 27.3477 16.0586 26.418L16.0469 26.2656H18.8711L18.8828 26.3477C18.9609 26.8164 19.1484 27.2422 19.4453 27.625C19.7422 28.0078 20.125 28.3086 20.5938 28.5273C21.0625 28.7461 21.5898 28.8555 22.1758 28.8555C22.8477 28.8555 23.4375 28.7148 23.9453 28.4336C24.4609 28.1445 24.8633 27.7461 25.1523 27.2383C25.4414 26.7305 25.5859 26.1484 25.5859 25.4922V25.4688C25.5859 24.8203 25.4375 24.2461 25.1406 23.7461C24.8516 23.2461 24.4531 22.8555 23.9453 22.5742C23.4375 22.2852 22.8555 22.1406 22.1992 22.1406C21.7227 22.1406 21.2773 22.2109 20.8633 22.3516C20.4492 22.4922 20.0859 22.6992 19.7734 22.9727C19.6094 23.1055 19.457 23.2539 19.3164 23.418C19.1836 23.5742 19.0664 23.7461 18.9648 23.9336H16.3398L17.1484 14.0898H27.4961V16.5625H19.5625L19.082 21.6719H19.1758C19.418 21.2891 19.7266 20.9648 20.1016 20.6992C20.4844 20.4336 20.918 20.2305 21.4023 20.0898C21.8867 19.9414 22.4062 19.8672 22.9609 19.8672C24.0312 19.8672 24.9805 20.1055 25.8086 20.582C26.6445 21.0586 27.3008 21.7148 27.7773 22.5508C28.2539 23.3867 28.4922 24.3398 28.4922 25.4102V25.4336C28.4922 26.5977 28.2227 27.6211 27.6836 28.5039C27.1445 29.3867 26.3984 30.0781 25.4453 30.5781C24.5 31.0703 23.4062 31.3164 22.1641 31.3164Z" fill="white"/>
<defs>
<linearGradient id="paint0_linear_787_4936" x1="22" y1="0" x2="22" y2="44" gradientUnits="userSpaceOnUse">
<stop stop-color="#FFDB80"/>
<stop offset="0.453125" stop-color="#DFA100"/>
</linearGradient>
</defs>
</svg>
